<?xml version="1.0" standalone="no"?>
<!DOCTYPE svg PUBLIC "-//W3C//DTD SVG 20010904//EN"
 "http://www.w3.org/TR/2001/REC-SVG-20010904/DTD/svg10.dtd">
<svg version="1.0" xmlns="http://www.w3.org/2000/svg"
 width="512.000000pt" height="512.000000pt" viewBox="0 0 512.000000 512.000000"
 preserveAspectRatio="xMidYMid meet">

<g transform="translate(0.000000,512.000000) scale(0.100000,-0.100000)"
fill="#000000" stroke="none">
<path d="M2335 4704 c-587 -79 -1083 -432 -1349 -962 -100 -197 -156 -399
-178 -635 -11 -112 -10 -144 5 -248 34 -236 118 -494 223 -687 88 -160 318
-494 528 -767 342 -442 827 -965 922 -993 52 -15 96 -15 148 0 107 31 634 611
1001 1099 461 615 609 911 671 1346 46 318 -61 736 -274 1063 -367 565 -1035
874 -1697 784z m437 -977 c117 -37 203 -90 294 -181 129 -129 198 -278 210
-454 21 -285 -137 -565 -388 -690 -122 -62 -190 -77 -338 -76 -113 0 -133 3
-213 31 -122 43 -189 85 -282 178 -92 91 -144 175 -182 290 -22 68 -26 98 -27
205 -1 148 14 215 76 340 73 147 234 290 388 346 141 50 324 55 462 11z"/>
</g>
</svg>
